<mxfile host="app.diagrams.net" modified="2023-08-27T19:06:28.016Z" agent="Mozilla/5.0 (X11; Linux x86_64) AppleWebKit/537.36 (KHTML, like Gecko) Chrome/116.0.0.0 Safari/537.36" version="21.6.9" etag="XqkUGK_gLA2C692D2eyj" type="github">
  <diagram name="PÃ¡gina-1" id="GKO0C__uwGMlcnW591Fc">
    <mxGraphModel>
      <root>
        <mxCell id="0" />
        <mxCell id="1" parent="0" />
      </root>
    </mxGraphModel>
  </diagram>
</mxfile>
